<!--
xkk1 Theme Icons
Copyright (C) 2024  [xkk1](https://github.com/xkk1)

This program is free software: you can redistribute it and/or modify
it under the terms of the GNU General Public License as published by
the Free Software Foundation, either version 3 of the License, or
(at your option) any later version.

This program is distributed in the hope that it will be useful,
but WITHOUT ANY WARRANTY; without even the implied warranty of
MERCHANTABILITY or FITNESS FOR A PARTICULAR PURPOSE.  See the
GNU General Public License for more details.

You should have received a copy of the GNU General Public License
along with this program.  If not, see <https://www.gnu.org/licenses/>.
-->
<svg xmlns="http://www.w3.org/2000/svg" style="display: none;">
    <!-- auto 自动 https://xkk1.github.io/ icons by [xkk1](https://github.com/xkk1) -->
    <symbol id="auto-icon" aria-hidden="true" fill="currentColor" stroke="currentColor" stroke-width="1.5" viewBox="0 0 24 24" xmlns="http://www.w3.org/2000/svg">
        <path d="M 12,2 A 5 5 0 0 0 12 22 z" stroke="none" />
        <ellipse cx="12" cy="12" rx="10" ry="10" fill="none" />
    </symbol>
    <!-- dark 深色模式 https://heroicons.dev/ icons by [@steveschoger](https://twitter.com/steveschoger) -->
    <symbol id="dark-icon" aria-hidden="true" fill="none" stroke="currentColor" stroke-width="1.5" viewBox="0 0 24 24">
        <path d="M21.752 15.002A9.718 9.718 0 0118 15.75c-5.385 0-9.75-4.365-9.75-9.75 0-1.33.266-2.597.748-3.752A9.753 9.753 0 003 11.25C3 16.635 7.365 21 12.75 21a9.753 9.753 0 009.002-5.998z" stroke-linecap="round" stroke-linejoin="round" />
    </symbol>
    <!-- light 浅色模式 https://heroicons.dev/ icons by [@steveschoger](https://twitter.com/steveschoger) -->
    <symbol id="light-icon" aria-hidden="true" fill="none" stroke="currentColor" stroke-width="1.5" viewBox="0 0 24 24">
        <path d="M12 3v2.25m6.364.386l-1.591 1.591M21 12h-2.25m-.386 6.364l-1.591-1.591M12 18.75V21m-4.773-4.227l-1.591 1.591M5.25 12H3m4.227-4.773L5.636 5.636M15.75 12a3.75 3.75 0 11-7.5 0 3.75 3.75 0 017.5 0z" stroke-linecap="round" stroke-linejoin="round" />
    </symbol>
    <!-- 回到顶部 https://heroicons.dev/ icons by [@steveschoger](https://twitter.com/steveschoger) -->
    <symbol id="back-to-top-icon" aria-hidden="true" fill="none" stroke="currentColor" stroke-width="1.5" viewBox="0 0 24 24" xmlns="http://www.w3.org/2000/svg">
        <path d="M15 11.25l-3-3m0 0l-3 3m3-3v7.5M21 12a9 9 0 11-18 0 9 9 0 0118 0z" stroke-linecap="round" stroke-linejoin="round"></path>
    </symbol>
</svg>